<?xml version="1.0" standalone="no"?>
<!DOCTYPE svg PUBLIC "-//W3C//DTD SVG 20010904//EN"
 "http://www.w3.org/TR/2001/REC-SVG-20010904/DTD/svg10.dtd">
<svg version="1.0" xmlns="http://www.w3.org/2000/svg"
 width="280.000000pt" height="280.000000pt" viewBox="0 0 280.000000 280.000000"
 preserveAspectRatio="xMidYMid meet">
<metadata>
Created by potrace 1.11, written by Peter Selinger 2001-2013
</metadata>
<g transform="translate(0.000000,280.000000) scale(0.100000,-0.100000)"
fill="#000000" stroke="none">
<path d="M1327 2644 c-1 -1 -35 -5 -75 -8 -377 -35 -752 -288 -946 -640 -65
-118 -125 -300 -142 -432 -3 -27 -8 -198 -11 -381 l-4 -332 33 -4 33 -4 -32
-1 c-25 -2 -33 -7 -33 -21 0 -15 8 -21 33 -24 l32 -4 -32 -1 c-26 -2 -33 -6
-33 -22 0 -14 7 -20 23 -20 17 0 19 -2 7 -9 -8 -6 -18 -7 -22 -5 -4 3 -8 -6
-8 -20 0 -22 5 -26 29 -26 l29 0 0 -135 c0 -75 3 -139 6 -142 12 -12 35 -11
45 1 6 7 12 70 13 141 l3 130 55 0 55 0 2 -134 c3 -140 9 -159 45 -140 16 9
18 25 18 144 l0 135 30 0 c25 0 30 4 30 24 0 18 -7 26 -22 29 l-23 4 23 2 c15
1 22 7 22 20 0 16 -8 21 -43 24 l-42 4 43 1 c34 2 42 6 42 21 0 15 -8 21 -32
24 l-33 4 32 1 31 2 4 183 c3 167 5 185 25 217 27 43 89 80 135 80 76 0 153
-65 163 -137 2 -15 4 -227 4 -469 l1 -441 71 -32 c39 -17 114 -42 167 -56 88
-22 134 -29 245 -39 l37 -4 1 292 c1 317 2 332 29 392 66 150 250 220 394 150
93 -46 159 -132 170 -223 2 -21 5 -136 5 -255 l1 -217 53 30 c186 109 377 302
468 472 l32 60 -17 54 c-10 30 -20 64 -23 76 -24 103 -34 169 -38 272 l-6 120
24 -75 c44 -139 112 -284 128 -275 8 5 26 61 35 110 2 11 6 31 9 45 17 89 23
281 12 355 -4 22 -9 60 -12 84 -17 123 -99 332 -181 458 -132 204 -332 372
-554 465 -80 34 -135 54 -135 49 0 -1 -12 2 -27 8 -16 6 -28 9 -28 7 0 -2 13
-31 30 -64 96 -194 71 -411 -72 -633 -63 -96 -192 -245 -263 -301 l-40 -33 45
55 c25 30 48 57 51 60 13 10 117 177 143 227 72 144 100 312 71 422 -27 104
-116 225 -208 286 -23 15 -118 29 -130 19z m-507 -762 c27 -33 25 -64 -4 -95
-19 -21 -32 -26 -57 -23 -80 9 -94 116 -18 144 32 12 56 4 79 -26z"/>
</g>
</svg>
